# xmcd
#
# Track frame offsets:
# 150
# 19360
# 40375
# 61700
# 80125
# 104590
# 122650
# 147315
# 167830
# 179127
#
# Disc length: 2674 seconds
#
#
# Revision: 0
# Processed by: cddbd v1.5.1PL0 Copyright (c) Steve Scherf et al.
# Submitted via: FreeRIP 2.942 
#
DISCID=930a700a
DTITLE=蔡振南 - 南哥的台灣料理
DYEAR=1999
DGENRE=Folk
TTITLE0=多桑
TTITLE1=黃昏的故鄉
TTITLE2=抬頭一下看
TTITLE3=野玫瑰
TTITLE4=錢
TTITLE5=變變變
TTITLE6=太陽
TTITLE7=查甫人的心
TTITLE8=牛郎'女
TTITLE9=港邊惜別
EXTD=
EXTT0=
EXTT1=
EXTT2=
EXTT3=
EXTT4=
EXTT5=
EXTT6=
EXTT7=
EXTT8=
EXTT9=
PLAYORDER=
